<mxfile host="app.diagrams.net" agent="Mozilla/5.0 (X11; Linux x86_64) AppleWebKit/537.36 (KHTML, like Gecko) Chrome/130.0.0.0 Safari/537.36" version="25.0.3">
  <diagram name="第 1 页" id="87h7Av7eAy1QqvIwK2mb">
    <mxGraphModel dx="1434" dy="754" grid="1" gridSize="10" guides="1" tooltips="1" connect="1" arrows="1" fold="1" page="1" pageScale="1" pageWidth="827" pageHeight="1169" math="0" shadow="0">
      <root>
        <mxCell id="0" />
        <mxCell id="1" parent="0" />
        <mxCell id="GeJ3TR5NCV1uH9ge1RhY-1" style="edgeStyle=orthogonalEdgeStyle;rounded=0;orthogonalLoop=1;jettySize=auto;html=1;entryX=0.5;entryY=0;entryDx=0;entryDy=0;" edge="1" parent="1" source="GeJ3TR5NCV1uH9ge1RhY-2" target="GeJ3TR5NCV1uH9ge1RhY-23">
          <mxGeometry relative="1" as="geometry" />
        </mxCell>
        <mxCell id="GeJ3TR5NCV1uH9ge1RhY-2" value="一次 DML 即 spark 作业或 trino SQL" style="rounded=1;whiteSpace=wrap;html=1;" vertex="1" parent="1">
          <mxGeometry x="125" y="640" width="120" height="60" as="geometry" />
        </mxCell>
        <mxCell id="GeJ3TR5NCV1uH9ge1RhY-3" value="snap-{snapshot-id}.avro" style="swimlane;fontStyle=0;childLayout=stackLayout;horizontal=1;startSize=30;horizontalStack=0;resizeParent=1;resizeParentMax=0;resizeLast=0;collapsible=1;marginBottom=0;" vertex="1" parent="1">
          <mxGeometry x="60" y="380" width="160" height="240" as="geometry" />
        </mxCell>
        <mxCell id="GeJ3TR5NCV1uH9ge1RhY-4" value="operation=append/overwrite" style="text;strokeColor=none;fillColor=none;align=left;verticalAlign=middle;spacingLeft=4;spacingRight=4;overflow=hidden;points=[[0,0.5],[1,0.5]];portConstraint=eastwest;rotatable=0;" vertex="1" parent="GeJ3TR5NCV1uH9ge1RhY-3">
          <mxGeometry y="30" width="160" height="30" as="geometry" />
        </mxCell>
        <mxCell id="GeJ3TR5NCV1uH9ge1RhY-5" value="manifest list" style="text;strokeColor=none;fillColor=none;align=left;verticalAlign=middle;spacingLeft=4;spacingRight=4;overflow=hidden;points=[[0,0.5],[1,0.5]];portConstraint=eastwest;rotatable=0;" vertex="1" parent="GeJ3TR5NCV1uH9ge1RhY-3">
          <mxGeometry y="60" width="160" height="30" as="geometry" />
        </mxCell>
        <mxCell id="GeJ3TR5NCV1uH9ge1RhY-6" value="added-data-files" style="text;strokeColor=none;fillColor=none;align=left;verticalAlign=middle;spacingLeft=4;spacingRight=4;overflow=hidden;points=[[0,0.5],[1,0.5]];portConstraint=eastwest;rotatable=0;" vertex="1" parent="GeJ3TR5NCV1uH9ge1RhY-3">
          <mxGeometry y="90" width="160" height="30" as="geometry" />
        </mxCell>
        <mxCell id="GeJ3TR5NCV1uH9ge1RhY-7" value="added-delete-files" style="text;strokeColor=none;fillColor=none;align=left;verticalAlign=middle;spacingLeft=4;spacingRight=4;overflow=hidden;points=[[0,0.5],[1,0.5]];portConstraint=eastwest;rotatable=0;" vertex="1" parent="GeJ3TR5NCV1uH9ge1RhY-3">
          <mxGeometry y="120" width="160" height="30" as="geometry" />
        </mxCell>
        <mxCell id="GeJ3TR5NCV1uH9ge1RhY-8" value="added-records" style="text;strokeColor=none;fillColor=none;align=left;verticalAlign=middle;spacingLeft=4;spacingRight=4;overflow=hidden;points=[[0,0.5],[1,0.5]];portConstraint=eastwest;rotatable=0;" vertex="1" parent="GeJ3TR5NCV1uH9ge1RhY-3">
          <mxGeometry y="150" width="160" height="30" as="geometry" />
        </mxCell>
        <mxCell id="GeJ3TR5NCV1uH9ge1RhY-9" value="total-data-files" style="text;strokeColor=none;fillColor=none;align=left;verticalAlign=middle;spacingLeft=4;spacingRight=4;overflow=hidden;points=[[0,0.5],[1,0.5]];portConstraint=eastwest;rotatable=0;" vertex="1" parent="GeJ3TR5NCV1uH9ge1RhY-3">
          <mxGeometry y="180" width="160" height="30" as="geometry" />
        </mxCell>
        <mxCell id="GeJ3TR5NCV1uH9ge1RhY-10" value="trino_query_id=xxxx" style="text;strokeColor=none;fillColor=none;align=left;verticalAlign=middle;spacingLeft=4;spacingRight=4;overflow=hidden;points=[[0,0.5],[1,0.5]];portConstraint=eastwest;rotatable=0;" vertex="1" parent="GeJ3TR5NCV1uH9ge1RhY-3">
          <mxGeometry y="210" width="160" height="30" as="geometry" />
        </mxCell>
        <mxCell id="GeJ3TR5NCV1uH9ge1RhY-11" value="{manifest-id}-m0.avro" style="swimlane;fontStyle=0;childLayout=stackLayout;horizontal=1;startSize=30;horizontalStack=0;resizeParent=1;resizeParentMax=0;resizeLast=0;collapsible=1;marginBottom=0;" vertex="1" parent="1">
          <mxGeometry x="300" y="380" width="250" height="180" as="geometry" />
        </mxCell>
        <mxCell id="GeJ3TR5NCV1uH9ge1RhY-12" value="partitions" style="text;strokeColor=none;fillColor=none;align=left;verticalAlign=middle;spacingLeft=4;spacingRight=4;overflow=hidden;points=[[0,0.5],[1,0.5]];portConstraint=eastwest;rotatable=0;" vertex="1" parent="GeJ3TR5NCV1uH9ge1RhY-11">
          <mxGeometry y="30" width="250" height="30" as="geometry" />
        </mxCell>
        <mxCell id="GeJ3TR5NCV1uH9ge1RhY-13" value="null_value_counts={1=0,2=0,3=2}" style="text;strokeColor=none;fillColor=none;align=left;verticalAlign=middle;spacingLeft=4;spacingRight=4;overflow=hidden;points=[[0,0.5],[1,0.5]];portConstraint=eastwest;rotatable=0;" vertex="1" parent="GeJ3TR5NCV1uH9ge1RhY-11">
          <mxGeometry y="60" width="250" height="30" as="geometry" />
        </mxCell>
        <mxCell id="GeJ3TR5NCV1uH9ge1RhY-14" value="lower_bounds={1=-1,2=2020-12-21,3=fuck}" style="text;strokeColor=none;fillColor=none;align=left;verticalAlign=middle;spacingLeft=4;spacingRight=4;overflow=hidden;points=[[0,0.5],[1,0.5]];portConstraint=eastwest;rotatable=0;" vertex="1" parent="GeJ3TR5NCV1uH9ge1RhY-11">
          <mxGeometry y="90" width="250" height="30" as="geometry" />
        </mxCell>
        <mxCell id="GeJ3TR5NCV1uH9ge1RhY-15" value="value_counts={1=100,2=100,3=100}" style="text;strokeColor=none;fillColor=none;align=left;verticalAlign=middle;spacingLeft=4;spacingRight=4;overflow=hidden;points=[[0,0.5],[1,0.5]];portConstraint=eastwest;rotatable=0;" vertex="1" parent="GeJ3TR5NCV1uH9ge1RhY-11">
          <mxGeometry y="120" width="250" height="30" as="geometry" />
        </mxCell>
        <mxCell id="GeJ3TR5NCV1uH9ge1RhY-16" value="file_path" style="text;strokeColor=none;fillColor=none;align=left;verticalAlign=middle;spacingLeft=4;spacingRight=4;overflow=hidden;points=[[0,0.5],[1,0.5]];portConstraint=eastwest;rotatable=0;" vertex="1" parent="GeJ3TR5NCV1uH9ge1RhY-11">
          <mxGeometry y="150" width="250" height="30" as="geometry" />
        </mxCell>
        <mxCell id="GeJ3TR5NCV1uH9ge1RhY-17" style="edgeStyle=orthogonalEdgeStyle;rounded=0;orthogonalLoop=1;jettySize=auto;html=1;entryX=-0.005;entryY=0.067;entryDx=0;entryDy=0;entryPerimeter=0;" edge="1" parent="1" source="GeJ3TR5NCV1uH9ge1RhY-5" target="GeJ3TR5NCV1uH9ge1RhY-12">
          <mxGeometry relative="1" as="geometry" />
        </mxCell>
        <mxCell id="GeJ3TR5NCV1uH9ge1RhY-18" value="1：1" style="edgeLabel;html=1;align=center;verticalAlign=middle;resizable=0;points=[];" vertex="1" connectable="0" parent="GeJ3TR5NCV1uH9ge1RhY-17">
          <mxGeometry x="-0.0472" y="-1" relative="1" as="geometry">
            <mxPoint as="offset" />
          </mxGeometry>
        </mxCell>
        <mxCell id="GeJ3TR5NCV1uH9ge1RhY-19" value="/data/partition=1/xxx.orc/parquet" style="swimlane;fontStyle=0;childLayout=stackLayout;horizontal=1;startSize=30;horizontalStack=0;resizeParent=1;resizeParentMax=0;resizeLast=0;collapsible=1;marginBottom=0;" vertex="1" parent="1">
          <mxGeometry x="620" y="380" width="190" height="60" as="geometry" />
        </mxCell>
        <mxCell id="GeJ3TR5NCV1uH9ge1RhY-20" value="data " style="text;strokeColor=none;fillColor=none;align=left;verticalAlign=middle;spacingLeft=4;spacingRight=4;overflow=hidden;points=[[0,0.5],[1,0.5]];portConstraint=eastwest;rotatable=0;" vertex="1" parent="GeJ3TR5NCV1uH9ge1RhY-19">
          <mxGeometry y="30" width="190" height="30" as="geometry" />
        </mxCell>
        <mxCell id="GeJ3TR5NCV1uH9ge1RhY-21" style="edgeStyle=orthogonalEdgeStyle;rounded=0;orthogonalLoop=1;jettySize=auto;html=1;entryX=0.018;entryY=-0.044;entryDx=0;entryDy=0;entryPerimeter=0;" edge="1" parent="1" source="GeJ3TR5NCV1uH9ge1RhY-16" target="GeJ3TR5NCV1uH9ge1RhY-20">
          <mxGeometry relative="1" as="geometry" />
        </mxCell>
        <mxCell id="GeJ3TR5NCV1uH9ge1RhY-22" value="1：N" style="edgeLabel;html=1;align=center;verticalAlign=middle;resizable=0;points=[];" vertex="1" connectable="0" parent="GeJ3TR5NCV1uH9ge1RhY-21">
          <mxGeometry x="-0.0845" relative="1" as="geometry">
            <mxPoint as="offset" />
          </mxGeometry>
        </mxCell>
        <mxCell id="GeJ3TR5NCV1uH9ge1RhY-23" value="v1.metadata.json" style="swimlane;fontStyle=0;childLayout=stackLayout;horizontal=1;startSize=30;horizontalStack=0;resizeParent=1;resizeParentMax=0;resizeLast=0;collapsible=1;marginBottom=0;" vertex="1" parent="1">
          <mxGeometry x="90" y="740" width="280" height="590" as="geometry" />
        </mxCell>
        <mxCell id="GeJ3TR5NCV1uH9ge1RhY-24" value="schemas=[{col1 info},{col2 info}]" style="text;strokeColor=none;fillColor=none;align=left;verticalAlign=middle;spacingLeft=4;spacingRight=4;overflow=hidden;points=[[0,0.5],[1,0.5]];portConstraint=eastwest;rotatable=0;" vertex="1" parent="GeJ3TR5NCV1uH9ge1RhY-23">
          <mxGeometry y="30" width="280" height="30" as="geometry" />
        </mxCell>
        <mxCell id="GeJ3TR5NCV1uH9ge1RhY-25" value="parition_specs=[{col n}]" style="text;strokeColor=none;fillColor=none;align=left;verticalAlign=middle;spacingLeft=4;spacingRight=4;overflow=hidden;points=[[0,0.5],[1,0.5]];portConstraint=eastwest;rotatable=0;" vertex="1" parent="GeJ3TR5NCV1uH9ge1RhY-23">
          <mxGeometry y="60" width="280" height="30" as="geometry" />
        </mxCell>
        <mxCell id="GeJ3TR5NCV1uH9ge1RhY-26" value="current_snapshot" style="text;strokeColor=none;fillColor=none;align=left;verticalAlign=middle;spacingLeft=4;spacingRight=4;overflow=hidden;points=[[0,0.5],[1,0.5]];portConstraint=eastwest;rotatable=0;" vertex="1" parent="GeJ3TR5NCV1uH9ge1RhY-23">
          <mxGeometry y="90" width="280" height="30" as="geometry" />
        </mxCell>
        <mxCell id="GeJ3TR5NCV1uH9ge1RhY-27" value="snapshots=[&#xa;    {&#xa;          sequence-number&#xa;          snapshot-id&#xa;          parent-snapshot-id&#xa;          summary {&#xa;              operation&#xa;              trino_query_id&#xa;              added-files&#xa;              added-delete-files&#xa;              added-records&#xa;              total-data-files  &#xa;          }&#xa;          manifest-list: &quot;xxx.avro&quot;&#xa;    }&#xa;    { snapshot2 }&#xa;]" style="text;strokeColor=none;fillColor=none;align=left;verticalAlign=middle;spacingLeft=4;spacingRight=4;overflow=hidden;points=[[0,0.5],[1,0.5]];portConstraint=eastwest;rotatable=0;" vertex="1" parent="GeJ3TR5NCV1uH9ge1RhY-23">
          <mxGeometry y="120" width="280" height="250" as="geometry" />
        </mxCell>
        <mxCell id="GeJ3TR5NCV1uH9ge1RhY-28" value="snapshot_log = [&#xa;    {&#xa;        timestmap-ms&#xa;        snapshot-id&#xa;    }&#xa;    {}&#xa;]" style="text;strokeColor=none;fillColor=none;align=left;verticalAlign=middle;spacingLeft=4;spacingRight=4;overflow=hidden;points=[[0,0.5],[1,0.5]];portConstraint=eastwest;rotatable=0;" vertex="1" parent="GeJ3TR5NCV1uH9ge1RhY-23">
          <mxGeometry y="370" width="280" height="110" as="geometry" />
        </mxCell>
        <mxCell id="GeJ3TR5NCV1uH9ge1RhY-29" value="metadata-log=[&#xa;    {&#xa;        timestmap-ms&#xa;       metadata-file=&quot;{version}.metadata.json&quot;&#xa;    }&#xa;]" style="text;strokeColor=none;fillColor=none;align=left;verticalAlign=middle;spacingLeft=4;spacingRight=4;overflow=hidden;points=[[0,0.5],[1,0.5]];portConstraint=eastwest;rotatable=0;" vertex="1" parent="GeJ3TR5NCV1uH9ge1RhY-23">
          <mxGeometry y="480" width="280" height="110" as="geometry" />
        </mxCell>
      </root>
    </mxGraphModel>
  </diagram>
</mxfile>
